<svg preserveAspectRatio="none" overflow="visible" style="display: block;" width="80" height="80" viewBox="0 0 80 80" fill="none" xmlns="http://www.w3.org/2000/svg">
<g id="Warning">
<path id="Vector" d="M73.4594 59.0906L46.1281 11.6313C45.5004 10.5639 44.6048 9.679 43.5299 9.06418C42.4551 8.44936 41.2383 8.12594 40 8.12594C38.7617 8.12594 37.5449 8.44936 36.4701 9.06418C35.3952 9.679 34.4996 10.5639 33.8719 11.6313L6.54062 59.0906C5.93902 60.1205 5.62199 61.2917 5.62199 62.4844C5.62199 63.6771 5.93902 64.8483 6.54062 65.8781C7.15997 66.953 8.05443 67.8435 9.13201 68.4581C10.2096 69.0727 11.4314 69.3891 12.6719 69.375H67.3281C68.5675 69.388 69.7881 69.071 70.8644 68.4565C71.9408 67.842 72.8343 66.9521 73.4531 65.8781C74.0557 64.8488 74.3738 63.6779 74.3749 62.4852C74.376 61.2926 74.06 60.121 73.4594 59.0906ZM70.2063 64C69.9142 64.5022 69.4936 64.9175 68.9877 65.2031C68.4818 65.4887 67.909 65.6343 67.3281 65.625H12.6719C12.091 65.6343 11.5182 65.4887 11.0123 65.2031C10.5064 64.9175 10.0858 64.5022 9.79375 64C9.52056 63.5405 9.37637 63.0158 9.37637 62.4813C9.37637 61.9467 9.52056 61.422 9.79375 60.9625L37.1219 13.5031C37.4206 13.0068 37.8427 12.5962 38.347 12.3112C38.8513 12.0261 39.4207 11.8763 40 11.8763C40.5793 11.8763 41.1487 12.0261 41.653 12.3112C42.1573 12.5962 42.5794 13.0068 42.8781 13.5031L70.2094 60.9625C70.4821 61.4223 70.6258 61.9471 70.6252 62.4817C70.6247 63.0163 70.4799 63.5408 70.2063 64ZM38.125 45V32.5C38.125 32.0027 38.3225 31.5258 38.6742 31.1742C39.0258 30.8225 39.5027 30.625 40 30.625C40.4973 30.625 40.9742 30.8225 41.3258 31.1742C41.6775 31.5258 41.875 32.0027 41.875 32.5V45C41.875 45.4973 41.6775 45.9742 41.3258 46.3258C40.9742 46.6775 40.4973 46.875 40 46.875C39.5027 46.875 39.0258 46.6775 38.6742 46.3258C38.3225 45.9742 38.125 45.4973 38.125 45ZM43.125 56.25C43.125 56.8681 42.9417 57.4723 42.5983 57.9862C42.255 58.5001 41.7669 58.9006 41.1959 59.1371C40.6249 59.3737 39.9965 59.4355 39.3903 59.315C38.7842 59.1944 38.2273 58.8968 37.7903 58.4597C37.3533 58.0227 37.0556 57.4658 36.935 56.8597C36.8145 56.2535 36.8764 55.6251 37.1129 55.0541C37.3494 54.4831 37.7499 53.995 38.2638 53.6517C38.7777 53.3083 39.3819 53.125 40 53.125C40.8288 53.125 41.6237 53.4542 42.2097 54.0403C42.7958 54.6263 43.125 55.4212 43.125 56.25Z" fill="#FCFCFC"/>
</g>
</svg>
